<svg width="1573" height="94" viewBox="0 0 1573 94" fill="none" xmlns="http://www.w3.org/2000/svg">
<ellipse cx="180.5" cy="35.25" rx="180.5" ry="35.25" transform="matrix(1 0 0 -1 35 82.5513)" fill="white"/>
<ellipse opacity="0.5" cx="180.5" cy="35.25" rx="180.5" ry="35.25" transform="matrix(1 0 0 -1 317 82.5513)" fill="white"/>
<ellipse opacity="0.5" cx="180.5" cy="35.25" rx="180.5" ry="35.25" transform="matrix(1 0 0 -1 0 94)" fill="white"/>
<ellipse opacity="0.5" cx="180.5" cy="35.25" rx="180.5" ry="35.25" transform="matrix(1 0 0 -1 627 94)" fill="white"/>
<ellipse opacity="0.5" cx="180.5" cy="35.25" rx="180.5" ry="35.25" transform="matrix(1 0 0 -1 976 90.9872)" fill="white"/>
<ellipse cx="180.5" cy="35.25" rx="180.5" ry="35.25" transform="matrix(1 0 0 -1 317 70.5)" fill="white"/>
<ellipse cx="180.5" cy="35.25" rx="180.5" ry="35.25" transform="matrix(1 0 0 -1 598 94)" fill="white"/>
<ellipse cx="180.5" cy="35.25" rx="180.5" ry="35.25" transform="matrix(1 0 0 -1 863 70.5)" fill="white"/>
<ellipse cx="180.5" cy="35.25" rx="180.5" ry="35.25" transform="matrix(1 0 0 -1 1150 82.5513)" fill="white"/>
<ellipse opacity="0.5" cx="180.5" cy="35.25" rx="180.5" ry="35.25" transform="matrix(1 0 0 -1 1212 90.9872)" fill="white"/>
</svg>
