<?xml version="1.0" encoding="UTF-8"?>
<svg xmlns="http://www.w3.org/2000/svg" xmlns:xlink="http://www.w3.org/1999/xlink" width="141px" height="100px" viewBox="0 0 141 100" version="1.1">
<g id="surface1">
<path style=" stroke:none;fill-rule:nonzero;fill:rgb(3.137255%,27.058825%,47.450981%);fill-opacity:1;" d="M 40.382812 49.519531 C 40.128906 50.125 39.777344 50.628906 39.34375 51.082031 C 38.90625 51.519531 38.390625 51.871094 37.785156 52.125 C 37.183594 52.378906 36.546875 52.511719 35.878906 52.511719 L 26.472656 52.511719 L 26.472656 47.707031 L 28.679688 47.707031 L 28.679688 50.277344 L 35.863281 50.277344 C 36.613281 50.277344 37.234375 50.023438 37.753906 49.503906 C 38.273438 48.984375 38.523438 48.34375 38.523438 47.605469 L 38.523438 45.003906 L 26.457031 45.003906 L 26.457031 40.199219 C 26.457031 39.527344 26.589844 38.886719 26.839844 38.285156 C 27.089844 37.679688 27.441406 37.175781 27.878906 36.722656 C 28.3125 36.285156 28.832031 35.929688 29.433594 35.679688 C 30.039062 35.425781 30.671875 35.292969 31.34375 35.292969 L 40.75 35.292969 L 40.75 39.171875 L 38.539062 39.171875 L 38.539062 37.492188 L 31.359375 37.492188 C 30.992188 37.492188 30.640625 37.5625 30.320312 37.710938 C 30.003906 37.847656 29.71875 38.046875 29.484375 38.285156 C 29.25 38.519531 29.050781 38.804688 28.914062 39.140625 C 28.765625 39.476562 28.699219 39.828125 28.699219 40.199219 L 28.699219 42.769531 L 40.765625 42.769531 L 40.765625 47.589844 C 40.765625 48.277344 40.632812 48.917969 40.382812 49.519531 Z M 40.382812 49.519531 "/>
<path style=" stroke:none;fill-rule:nonzero;fill:rgb(3.137255%,27.058825%,47.450981%);fill-opacity:1;" d="M 47.144531 52.511719 C 46.507812 52.511719 45.90625 52.394531 45.335938 52.140625 C 44.765625 51.890625 44.265625 51.554688 43.84375 51.117188 C 43.410156 50.679688 43.074219 50.191406 42.824219 49.621094 C 42.574219 49.050781 42.457031 48.445312 42.457031 47.808594 L 42.457031 40.03125 C 42.457031 39.390625 42.574219 38.789062 42.824219 38.214844 C 43.074219 37.644531 43.410156 37.140625 43.84375 36.722656 C 44.28125 36.285156 44.765625 35.949219 45.335938 35.695312 C 45.90625 35.445312 46.507812 35.328125 47.144531 35.328125 L 53.652344 35.328125 C 54.289062 35.328125 54.890625 35.445312 55.460938 35.695312 C 56.03125 35.949219 56.53125 36.285156 56.949219 36.722656 C 57.386719 37.15625 57.722656 37.644531 57.972656 38.214844 C 58.222656 38.789062 58.339844 39.390625 58.339844 40.03125 L 58.339844 47.808594 C 58.339844 48.445312 58.222656 49.050781 57.972656 49.621094 C 57.722656 50.191406 57.386719 50.695312 56.949219 51.117188 C 56.515625 51.554688 56.03125 51.890625 55.460938 52.140625 C 54.890625 52.394531 54.289062 52.511719 53.652344 52.511719 Z M 44.632812 47.792969 C 44.632812 48.128906 44.699219 48.445312 44.832031 48.75 C 44.96875 49.050781 45.152344 49.320312 45.386719 49.554688 C 45.621094 49.789062 45.886719 49.976562 46.1875 50.109375 C 46.488281 50.242188 46.808594 50.3125 47.144531 50.3125 L 53.652344 50.3125 C 53.988281 50.3125 54.324219 50.242188 54.625 50.109375 C 54.941406 49.976562 55.210938 49.789062 55.429688 49.554688 C 55.644531 49.320312 55.828125 49.050781 55.964844 48.75 C 56.097656 48.445312 56.164062 48.128906 56.164062 47.792969 L 56.164062 40.011719 C 56.164062 39.675781 56.097656 39.339844 55.964844 39.039062 C 55.828125 38.71875 55.644531 38.453125 55.429688 38.234375 C 55.210938 38.015625 54.941406 37.828125 54.625 37.695312 C 54.304688 37.5625 53.988281 37.492188 53.652344 37.492188 L 47.144531 37.492188 C 46.808594 37.492188 46.488281 37.5625 46.1875 37.695312 C 45.886719 37.828125 45.621094 38.015625 45.386719 38.234375 C 45.152344 38.453125 44.96875 38.71875 44.832031 39.039062 C 44.699219 39.359375 44.632812 39.675781 44.632812 40.011719 Z M 44.632812 47.792969 "/>
<path style=" stroke:none;fill-rule:nonzero;fill:rgb(3.137255%,27.058825%,47.450981%);fill-opacity:1;" d="M 62.992188 52.125 C 62.40625 51.871094 61.90625 51.535156 61.488281 51.101562 C 61.050781 50.664062 60.71875 50.160156 60.464844 49.589844 C 60.214844 49.015625 60.097656 48.378906 60.097656 47.722656 L 60.097656 35.292969 L 62.308594 35.292969 L 62.308594 47.722656 C 62.308594 48.078125 62.375 48.414062 62.507812 48.714844 C 62.640625 49.015625 62.824219 49.285156 63.058594 49.519531 C 63.292969 49.757812 63.5625 49.941406 63.863281 50.074219 C 64.164062 50.210938 64.5 50.277344 64.851562 50.277344 L 71.746094 50.277344 L 71.746094 52.496094 L 64.851562 52.496094 C 64.179688 52.511719 63.578125 52.378906 62.992188 52.125 Z M 62.992188 52.125 "/>
<path style=" stroke:none;fill-rule:nonzero;fill:rgb(3.137255%,27.058825%,47.450981%);fill-opacity:1;" d="M 75.628906 52.511719 L 73.421875 52.511719 L 73.421875 35.292969 L 75.628906 35.292969 Z M 75.628906 52.511719 "/>
<path style=" stroke:none;fill-rule:nonzero;fill:rgb(99.215686%,83.137256%,7.450981%);fill-opacity:1;" d="M 80.28125 52.125 C 79.695312 51.871094 79.179688 51.535156 78.742188 51.101562 C 78.308594 50.664062 77.957031 50.144531 77.722656 49.554688 C 77.472656 48.96875 77.355469 48.34375 77.355469 47.671875 L 77.355469 40.082031 C 77.355469 39.425781 77.472656 38.804688 77.722656 38.214844 C 77.972656 37.628906 78.308594 37.125 78.742188 36.6875 C 79.179688 36.25 79.695312 35.898438 80.28125 35.664062 C 80.867188 35.410156 81.488281 35.292969 82.15625 35.292969 L 90.039062 35.292969 L 90.039062 37.492188 L 82.15625 37.492188 C 81.804688 37.492188 81.472656 37.5625 81.136719 37.695312 C 80.820312 37.828125 80.535156 38.015625 80.316406 38.25 C 80.082031 38.484375 79.898438 38.769531 79.765625 39.074219 C 79.628906 39.390625 79.5625 39.726562 79.5625 40.082031 L 79.5625 47.671875 C 79.5625 48.414062 79.8125 49.015625 80.316406 49.519531 C 80.820312 50.023438 81.421875 50.277344 82.15625 50.277344 L 90.039062 50.277344 L 90.039062 52.496094 L 82.15625 52.496094 C 81.488281 52.511719 80.867188 52.378906 80.28125 52.125 Z M 80.28125 52.125 "/>
<path style=" stroke:none;fill-rule:nonzero;fill:rgb(99.215686%,83.137256%,7.450981%);fill-opacity:1;" d="M 96.417969 52.511719 C 95.78125 52.511719 95.179688 52.394531 94.609375 52.140625 C 94.042969 51.890625 93.539062 51.554688 93.121094 51.117188 C 92.683594 50.679688 92.351562 50.191406 92.101562 49.621094 C 91.847656 49.050781 91.730469 48.445312 91.730469 47.808594 L 91.730469 40.03125 C 91.730469 39.390625 91.847656 38.789062 92.101562 38.214844 C 92.351562 37.644531 92.683594 37.140625 93.121094 36.722656 C 93.554688 36.285156 94.042969 35.949219 94.609375 35.695312 C 95.179688 35.445312 95.78125 35.328125 96.417969 35.328125 L 102.929688 35.328125 C 103.566406 35.328125 104.167969 35.445312 104.753906 35.695312 C 105.320312 35.949219 105.824219 36.285156 106.242188 36.722656 C 106.679688 37.15625 107.011719 37.644531 107.265625 38.214844 C 107.515625 38.789062 107.632812 39.390625 107.632812 40.03125 L 107.632812 47.808594 C 107.632812 48.445312 107.515625 49.050781 107.265625 49.621094 C 107.011719 50.191406 106.679688 50.695312 106.242188 51.117188 C 105.808594 51.554688 105.320312 51.890625 104.753906 52.140625 C 104.183594 52.394531 103.582031 52.511719 102.929688 52.511719 Z M 93.90625 47.792969 C 93.90625 48.128906 93.972656 48.445312 94.109375 48.75 C 94.242188 49.050781 94.425781 49.320312 94.660156 49.554688 C 94.894531 49.789062 95.164062 49.976562 95.464844 50.109375 C 95.765625 50.242188 96.082031 50.3125 96.417969 50.3125 L 102.929688 50.3125 C 103.261719 50.3125 103.597656 50.242188 103.898438 50.109375 C 104.21875 49.976562 104.484375 49.789062 104.703125 49.554688 C 104.921875 49.320312 105.105469 49.050781 105.238281 48.75 C 105.371094 48.445312 105.4375 48.128906 105.4375 47.792969 L 105.4375 40.011719 C 105.4375 39.675781 105.371094 39.339844 105.238281 39.039062 C 105.105469 38.71875 104.921875 38.453125 104.703125 38.234375 C 104.484375 38.015625 104.21875 37.828125 103.898438 37.695312 C 103.582031 37.5625 103.261719 37.492188 102.929688 37.492188 L 96.417969 37.492188 C 96.082031 37.492188 95.765625 37.5625 95.464844 37.695312 C 95.164062 37.828125 94.894531 38.015625 94.660156 38.234375 C 94.425781 38.453125 94.242188 38.71875 94.109375 39.039062 C 93.972656 39.359375 93.90625 39.675781 93.90625 40.011719 Z M 93.90625 47.792969 "/>
<path style=" stroke:none;fill-rule:nonzero;fill:rgb(99.215686%,83.137256%,7.450981%);fill-opacity:1;" d="M 123.699219 47.707031 C 123.699219 48.363281 123.582031 48.984375 123.332031 49.570312 C 123.082031 50.160156 122.746094 50.664062 122.3125 51.101562 C 121.875 51.535156 121.355469 51.890625 120.769531 52.125 C 120.183594 52.378906 119.566406 52.496094 118.894531 52.496094 L 109.355469 52.496094 L 109.355469 35.292969 L 118.894531 35.292969 C 119.550781 35.292969 120.183594 35.410156 120.769531 35.664062 C 121.355469 35.914062 121.875 36.25 122.3125 36.6875 C 122.746094 37.125 123.097656 37.628906 123.332031 38.214844 C 123.582031 38.804688 123.699219 39.425781 123.699219 40.082031 Z M 111.582031 50.277344 L 118.894531 50.277344 C 119.632812 50.277344 120.234375 50.023438 120.738281 49.519531 C 121.238281 49.015625 121.492188 48.414062 121.492188 47.707031 L 121.492188 40.097656 C 121.492188 39.746094 121.421875 39.410156 121.289062 39.089844 C 121.15625 38.769531 120.972656 38.5 120.738281 38.265625 C 120.503906 38.03125 120.234375 37.828125 119.917969 37.710938 C 119.597656 37.578125 119.265625 37.511719 118.894531 37.511719 L 111.582031 37.511719 Z M 111.582031 50.277344 "/>
<path style=" stroke:none;fill-rule:nonzero;fill:rgb(99.215686%,83.137256%,7.450981%);fill-opacity:1;" d="M 136.972656 52.511719 L 125.390625 52.511719 L 125.390625 40.214844 C 125.390625 39.542969 125.523438 38.90625 125.773438 38.300781 C 126.027344 37.695312 126.378906 37.191406 126.8125 36.738281 C 127.25 36.300781 127.765625 35.949219 128.371094 35.695312 C 128.972656 35.445312 129.609375 35.308594 130.277344 35.308594 L 136.972656 35.308594 L 136.972656 37.511719 L 130.277344 37.511719 C 129.910156 37.511719 129.558594 37.578125 129.238281 37.730469 C 128.921875 37.863281 128.636719 38.066406 128.402344 38.300781 C 128.167969 38.535156 127.96875 38.820312 127.832031 39.15625 C 127.683594 39.492188 127.617188 39.84375 127.617188 40.214844 L 127.617188 42.785156 L 135.382812 42.785156 L 135.382812 45.003906 L 127.617188 45.003906 L 127.617188 50.277344 L 136.988281 50.277344 L 136.988281 52.511719 Z M 136.972656 52.511719 "/>
<path style=" stroke:none;fill-rule:nonzero;fill:rgb(99.215686%,83.137256%,7.450981%);fill-opacity:1;" d="M 10.972656 49.554688 L 10.972656 46.027344 C 10.972656 45.574219 10.855469 45.304688 10.636719 45.1875 C 10.421875 45.070312 10.019531 45.019531 9.433594 45.019531 L 9.433594 42.449219 C 10.019531 42.449219 10.421875 42.398438 10.636719 42.28125 C 10.855469 42.164062 10.972656 41.878906 10.972656 41.441406 L 10.972656 38.25 C 10.972656 37.007812 11.222656 36.183594 11.726562 35.761719 C 11.976562 35.5625 12.3125 35.410156 12.746094 35.308594 L 4.378906 35.308594 L 4.378906 52.511719 L 12.730469 52.511719 C 12.296875 52.410156 11.960938 52.257812 11.710938 52.058594 C 11.222656 51.636719 10.972656 50.796875 10.972656 49.554688 Z M 10.972656 49.554688 "/>
<path style=" stroke:none;fill-rule:nonzero;fill:rgb(99.215686%,83.137256%,7.450981%);fill-opacity:1;" d="M 21.519531 35.292969 L 16.464844 35.292969 L 16.464844 37.542969 L 14.121094 37.542969 C 13.953125 37.542969 13.820312 37.5625 13.75 37.609375 C 13.683594 37.660156 13.632812 37.761719 13.632812 37.945312 L 13.632812 41.441406 C 13.632812 42.601562 13.265625 43.375 12.53125 43.777344 C 13.265625 44.144531 13.632812 44.917969 13.632812 46.09375 L 13.632812 49.839844 C 13.632812 50.007812 13.667969 50.125 13.75 50.175781 C 13.820312 50.226562 13.953125 50.242188 14.121094 50.242188 L 16.464844 50.242188 L 16.464844 52.496094 L 21.519531 52.496094 Z M 21.519531 35.292969 "/>
</g>
</svg>
